<?xml version="1.0" encoding="UTF-8"?>
<svg version="1.1" xmlns="http://www.w3.org/2000/svg" width="1024" height="576">
<path d="M0 0 C337.92 0 675.84 0 1024 0 C1024 190.08 1024 380.16 1024 576 C686.08 576 348.16 576 0 576 C0 385.92 0 195.84 0 0 Z " fill="#F9FAF7" transform="translate(0,0)"/>
<path d="M0 0 C1.03511719 0.56332031 2.07023438 1.12664062 3.13671875 1.70703125 C17.28206912 10.1311102 27.23642858 21.17410631 32 37 C32.35578125 37.99515625 32.7115625 38.9903125 33.078125 40.015625 C37.2337535 54.82042814 35.38614108 73.47034135 28.00878906 86.78955078 C19.32387151 102.06591403 8.1915508 111.34989878 -8 118 C-8.8559375 118.39574219 -9.711875 118.79148437 -10.59375 119.19921875 C-25.59046476 125.34011488 -45.70051755 123.22803392 -60.5703125 117.6640625 C-75.50904444 110.93342503 -88.48391676 98.22920259 -94.8671875 83.07421875 C-99.87007762 69.49741004 -102.25135188 56.09019481 -98 42 C-97.74347656 41.06671875 -97.48695313 40.1334375 -97.22265625 39.171875 C-92.15428766 22.2048042 -80.43285254 8.46559387 -65 0 C-64.030625 -0.5775 -63.06125 -1.155 -62.0625 -1.75 C-42.30147761 -9.81572342 -18.76024736 -10.34781181 0 0 Z " fill="#043D2A" transform="translate(553,276)"/>
<path d="M0 0 C3.84612364 1.56693926 6.12412231 4.05564903 9 7 C13.20752638 10.73326763 17.45528229 13.60614172 22.375 16.3125 C23.01566406 16.67150391 23.65632813 17.03050781 24.31640625 17.40039062 C25.8745163 18.27246714 27.43682222 19.13704021 29 20 C27.7842326 23.21230285 26.41816094 26.07611975 24.625 29 C17.04951473 42.80221946 15.23682947 59.24974852 18.96484375 74.6171875 C22.43679054 86.12929034 29.76213646 95.41845968 40.30957031 101.21240234 C53.94422951 108.06640397 69.21067237 109.32114984 83.875 105 C84.96554687 104.62875 86.05609375 104.2575 87.1796875 103.875 C90 103 90 103 94 103 C94 102.34 94 101.68 94 101 C97.465 100.01 97.465 100.01 101 99 C101 92.07 101 85.14 101 78 C98.48503906 78.01160156 95.97007812 78.02320313 93.37890625 78.03515625 C90.9530449 78.04294673 88.52718493 78.04902354 86.10131836 78.05493164 C84.41055684 78.0599719 82.71979971 78.06680405 81.02905273 78.07543945 C78.60399293 78.08751857 76.17899056 78.09323123 73.75390625 78.09765625 C72.61327477 78.10539818 72.61327477 78.10539818 71.44960022 78.11329651 C69.6326743 78.11349238 67.81586873 78.06197277 66 78 C65.67 77.67 65.34 77.34 65 77 C65 67.76 65 58.52 65 49 C88.76 49 112.52 49 137 49 C137.2165625 65.83 137.2165625 65.83 137.4375 83 C137.50122803 86.52945313 137.56495605 90.05890625 137.63061523 93.6953125 C137.66223145 98.0390625 137.66223145 98.0390625 137.66810608 100.07910156 C137.67878477 101.48974102 137.70325932 102.90032056 137.73902893 104.31054688 C138.06095999 117.68303947 138.06095999 117.68303947 133.74633789 122.84375 C130.0493768 126.42687639 125.79279518 128.28949713 121 130 C120.19820312 130.34417969 119.39640625 130.68835938 118.5703125 131.04296875 C115.8540726 132.05433467 113.3660393 132.52412895 110.5 132.9375 C105.01744155 133.78719541 99.6812451 134.96954565 94.30078125 136.31640625 C68.89652053 141.57764368 35.83657522 140.77505764 13.62109375 126.2578125 C2.05475045 118.18455283 -6.24040054 108.3752667 -13 96 C-13.36738281 95.34644531 -13.73476562 94.69289063 -14.11328125 94.01953125 C-19.00410335 84.86104198 -21.71356216 75.36157758 -22 65 C-22.02046387 64.28328125 -22.04092773 63.5665625 -22.06201172 62.828125 C-22.12289746 60.36451682 -22.15967496 57.9016952 -22.1875 55.4375 C-22.20071289 54.65818115 -22.21392578 53.8788623 -22.22753906 53.07592773 C-22.23965477 43.44091362 -19.9367347 34.93664068 -16.3125 26.0625 C-15.96018311 25.19294678 -15.60786621 24.32339355 -15.24487305 23.42749023 C-11.56873653 14.59701296 -7.28487335 6.4018584 0 0 Z " fill="#043D29" transform="translate(214,257)"/>
<path d="M0 0 C0 0.66 0 1.32 0 2 C1.27875 2.20625 2.5575 2.4125 3.875 2.625 C13.72731947 4.86065935 22.36998611 11.54445909 29 19 C30.25119809 21.49326335 30.6433569 23.20629571 31 26 C26.07168933 30.89588758 20.57956518 34.76955266 14.75 38.5 C14.05261719 38.95745605 13.35523438 39.41491211 12.63671875 39.88623047 C11.63318359 40.51489014 11.63318359 40.51489014 10.609375 41.15625 C10.01092773 41.53587891 9.41248047 41.91550781 8.79589844 42.30664062 C6.44914139 43.21267516 5.3160879 42.91415198 3 42 C1.33333333 40.33333333 -0.33333333 38.66666667 -2 37 C-10.37433252 31.19121444 -16.84365452 30.11639794 -27 31 C-34.83081142 33.29772493 -40.82504077 38.25169302 -45.31640625 44.96875 C-48.25596089 50.78640518 -48.40720946 56.73179033 -48.5 63.125 C-48.51861084 63.97215576 -48.53722168 64.81931152 -48.55639648 65.69213867 C-48.46309748 74.97946589 -44.50927971 81.27046918 -38.26171875 87.9453125 C-33.00261445 92.72301347 -27.56239996 95.24406872 -20.4375 95.5625 C-11.08612273 95.06200375 -4.39551764 90.61023526 2 84 C2.99 82.515 2.99 82.515 4 81 C8.37167836 81.58073956 11.38291805 83.21160903 15.125 85.5 C19.39682408 88.10606892 19.39682408 88.10606892 24 90 C24 90.66 24 91.32 24 92 C24.86625 92.37125 24.86625 92.37125 25.75 92.75 C28.41076851 94.22820473 30.13556544 95.58314039 32 98 C31.47259878 103.88771548 28.11832382 107.06326012 24 111 C7.42794071 124.7130628 -9.77067062 128.95880639 -31 127 C-47.76313787 124.41536039 -62.6283398 115.8290947 -72.99609375 102.41796875 C-78.10118278 95.33877045 -81.20269829 88.87358675 -83.25390625 80.390625 C-83.84530082 77.84514141 -83.84530082 77.84514141 -86 76 C-88.61921802 57.5700179 -84.44790336 39.14771505 -73.859375 23.921875 C-69.21939284 17.98399573 -64.23247137 13.21857756 -58 9 C-57.24203125 8.46632813 -56.4840625 7.93265625 -55.703125 7.3828125 C-38.93087597 -3.63425304 -19.01668724 -3.23688293 0 0 Z " fill="#053C29" transform="translate(682,271)"/>
<path d="M0 0 C11.221785 10.46050813 17.54170402 24.83372031 18.30859375 40.01953125 C18.80829387 56.53247872 16.66350667 70.72733745 6 84 C4.20496657 81.30744986 3.60747293 79.82699468 2.8125 76.8125 C0.65896264 70.14523536 -3.41755799 65.50251171 -9.4375 62 C-10.283125 61.67 -11.12875 61.34 -12 61 C-12 60.34 -12 59.68 -12 59 C-13.65 58.67 -15.3 58.34 -17 58 C-16.835 57.13375 -16.67 56.2675 -16.5 55.375 C-14.9984575 43.94017634 -15.20980884 34.71674913 -22 25 C-26.8712583 19.46939967 -32.39914421 15.43906016 -39.90625 14.72265625 C-49.87303278 14.42602581 -59.26609338 15.19956299 -67.0625 21.875 C-72.71543772 27.2437118 -76.01185522 33.36428799 -76.23046875 41.234375 C-76.22652825 42.73964632 -76.21202526 44.24492333 -76.1875 45.75 C-76.18685547 46.51699219 -76.18621094 47.28398437 -76.18554688 48.07421875 C-76.23916606 52.16939139 -76.23916606 52.16939139 -75 56 C-74.960008 57.99960012 -74.95653201 60.00047242 -75 62 C-74.28812027 61.99777939 -73.57624054 61.99555878 -72.8427887 61.99327087 C-66.14725765 61.97326747 -59.45173489 61.95802562 -52.75618076 61.94818783 C-49.31359652 61.94296018 -45.87103688 61.93586469 -42.4284668 61.92456055 C-38.47444957 61.91165765 -34.52044244 61.90677082 -30.56640625 61.90234375 C-28.70394005 61.89460182 -28.70394005 61.89460182 -26.80384827 61.88670349 C-25.66274094 61.88662796 -24.52163361 61.88655243 -23.34594727 61.88647461 C-22.335569 61.884254 -21.32519073 61.88203339 -20.28419495 61.87974548 C-18 62 -18 62 -17 63 C-16.53076182 69.33471537 -16.53076182 69.33471537 -18.19996643 71.7013092 C-20.59083608 73.42627726 -22.11451252 73.38652516 -25.05053711 73.40405273 C-26.07847885 73.41673691 -27.10642059 73.42942108 -28.16551208 73.44248962 C-29.82961876 73.43808617 -29.82961876 73.43808617 -31.52734375 73.43359375 C-33.23803795 73.44145653 -33.23803795 73.44145653 -34.98329163 73.44947815 C-37.39664902 73.45590546 -39.81003771 73.45455224 -42.22338867 73.44604492 C-45.91967497 73.43754101 -49.61441359 73.46627919 -53.31054688 73.49804688 C-55.65364537 73.49965906 -57.99674661 73.49908104 -60.33984375 73.49609375 C-61.44722397 73.50732773 -62.55460419 73.51856171 -63.69554138 73.53013611 C-64.72663528 73.52075516 -65.75772919 73.51137421 -66.82006836 73.50170898 C-67.72591171 73.50154282 -68.63175507 73.50137665 -69.56504822 73.50120544 C-72.76598163 72.84233192 -73.96071978 71.49626593 -76 69 C-76.75 66.75 -76.75 66.75 -77 65 C-77.66 65 -78.32 65 -79 65 C-79 64.34 -79 63.68 -79 63 C-85.04826484 63.26881177 -89.2379446 63.91823823 -94 68 C-95.89799927 70.68337828 -96.96092816 72.88278447 -98 76 C-100.64483778 74.99484934 -101.8290432 74.26587899 -103.37890625 71.85546875 C-110.17388093 56.53874366 -113.00294372 40.22293338 -107.328125 24.09765625 C-100.35763294 7.8400086 -88.98518891 -4.78924314 -72.375 -11.4375 C-47.88618784 -20.65032301 -20.44131757 -16.58017981 0 0 Z " fill="#05693F" transform="translate(830,285)"/>
<path d="M0 0 C0.10709533 11.72098848 -0.00859351 23.31556633 -1 35 C-2.12277344 35.02578125 -3.24554688 35.0515625 -4.40234375 35.078125 C-16.24524499 35.41257012 -16.24524499 35.41257012 -27 40 C-27.71671875 40.44601562 -28.4334375 40.89203125 -29.171875 41.3515625 C-33.97428198 44.62911763 -36.66169352 47.66866123 -39 53 C-39.82372684 57.64007498 -40.1420786 62.14613583 -40.20532227 66.85327148 C-40.21522186 67.49802933 -40.22512146 68.14278717 -40.23532104 68.80708313 C-40.26659289 70.9117176 -40.29155569 73.01637454 -40.31640625 75.12109375 C-40.33700553 76.59083094 -40.35800273 78.0605626 -40.37937927 79.5302887 C-40.4342931 83.37872816 -40.48383629 87.22721834 -40.53222656 91.07574463 C-40.5915522 95.70398188 -40.65760952 100.33212745 -40.72252655 104.960289 C-40.82014933 111.9734695 -40.90926932 118.9867117 -41 126 C-52.88 126 -64.76 126 -77 126 C-77 85.08 -77 44.16 -77 2 C-65.78 2 -54.56 2 -43 2 C-43 7.94 -43 13.88 -43 20 C-42.34 20 -41.68 20 -41 20 C-40.6596875 19.195625 -40.6596875 19.195625 -40.3125 18.375 C-35.36059948 9.41441811 -26.29278203 3.33853331 -16.546875 0.421875 C-11.07691813 -0.48419148 -5.52204532 -0.21208424 0 0 Z " fill="#08412C" transform="translate(451,270)"/>
<path d="M0 0 C23.68618879 -0.68545241 47.80891198 2.49936508 65.9375 19.3125 C66.99952865 20.50625313 68.01733556 21.74011033 69 23 C70.03060547 24.30904297 70.03060547 24.30904297 71.08203125 25.64453125 C80.08180849 38.01719798 80.47556936 50.29257713 80 65 C61.59721353 66.53641074 41.96246698 60.81019527 27.109375 49.87109375 C24.5730584 47.69655237 22.2767584 45.44393297 20 43 C19.22140625 42.16726562 18.4428125 41.33453125 17.640625 40.4765625 C8.37048229 29.86878175 -0.53308765 14.49998414 0 0 Z " fill="#78BC06" transform="translate(206,212)"/>
<path d="M0 0 C6.30734881 4.98939533 9.20759564 10.8980545 10.51171875 18.7109375 C11.63995764 28.57614829 10.91827698 36.40887671 6.83203125 45.51171875 C6.17203125 45.51171875 5.51203125 45.51171875 4.83203125 45.51171875 C4.60515625 46.06859375 4.37828125 46.62546875 4.14453125 47.19921875 C0.86115707 52.98421134 -4.10754756 56.17019238 -10.16796875 58.51171875 C-18.61827112 60.58340578 -27.27645324 60.32569285 -35.16796875 56.51171875 C-42.45562493 51.70186567 -47.90490023 44.22099404 -49.81054688 35.66870117 C-51.62782843 24.70170488 -51.3554724 13.82206252 -44.8125 4.6015625 C-32.64072927 -10.76815335 -15.46502944 -10.61653373 0 0 Z " fill="#F8FAF9" transform="translate(540.16796875,307.48828125)"/>
<path d="M0 0 C3.81248426 -0.02887236 7.6249407 -0.04675492 11.4375 -0.0625 C12.52611328 -0.07087891 13.61472656 -0.07925781 14.73632812 -0.08789062 C15.77080078 -0.09111328 16.80527344 -0.09433594 17.87109375 -0.09765625 C18.82943115 -0.10289307 19.78776855 -0.10812988 20.77514648 -0.11352539 C23 0 23 0 24 1 C25.09391087 10.6264157 21.30071662 19.74064224 15.6875 27.375 C14.14710156 29.26819938 12.58658552 31.14533624 11 33 C10.47921875 33.66773438 9.9584375 34.33546875 9.421875 35.0234375 C1.40926996 44.34336231 -11.63724274 48.75363893 -23.4921875 49.8359375 C-28.33703705 50.06253403 -33.15225866 50.18141236 -38 50 C-37.27851802 34.34384109 -32.47745126 20.82712094 -21 10 C-17.78629989 7.73696154 -14.46241322 5.84995363 -11 4 C-10.01 3.34 -9.02 2.68 -8 2 C-5.95703125 1.8046875 -5.95703125 1.8046875 -3.8125 1.875 C-1.9253125 1.936875 -1.9253125 1.936875 0 2 C0 1.34 0 0.68 0 0 Z " fill="#F96204" transform="translate(329,238)"/>
<path d="M0 0 C2.19900266 1.49661852 4.02336602 3.19906682 6 5 C8.83225188 6.41612594 11.17916781 6.09616478 14.34570312 6.06591797 C15.32155617 6.05890869 15.32155617 6.05890869 16.31712341 6.05175781 C17.73091795 6.04124911 19.1446977 6.02858441 20.55845642 6.01403427 C22.79389702 5.9920632 25.02925351 5.97795165 27.26477051 5.96633911 C33.62112975 5.93268906 39.97734903 5.89099623 46.33349609 5.82861328 C50.21963651 5.79103488 54.10563323 5.76796447 57.9919281 5.75430679 C59.47517405 5.74623435 60.95840026 5.73259997 62.44154358 5.71337509 C64.51264329 5.68699419 66.58305046 5.67901226 68.65429688 5.67529297 C69.83407104 5.66561493 71.01384521 5.65593689 72.22937012 5.64596558 C73.14367798 5.76279694 74.05798584 5.8796283 75 6 C77.51675702 9.77513553 77.36808778 11.5093291 77 16 C75.5956396 22.95227921 71.51866901 27.69422528 66 32 C63.03577583 33.41453859 61.30383235 34 58 34 C58 34.66 58 35.32 58 36 C53.53432237 36.09917794 49.06923493 36.17161225 44.6027832 36.21972656 C43.0847659 36.23979203 41.56682541 36.26705134 40.04907227 36.30175781 C37.86194878 36.35050393 35.67585048 36.37301805 33.48828125 36.390625 C31.51661987 36.4220459 31.51661987 36.4220459 29.50512695 36.45410156 C25.44261274 35.92778851 23.81047891 34.93281779 21 32 C20.3984375 29.0546875 20.3984375 29.0546875 20.375 25.875 C20.39668485 22.75806608 20.39668485 22.75806608 20 20 C16.59407537 17.72938358 15.37384619 17.76011937 11.37890625 17.76171875 C9.72858398 17.73754883 9.72858398 17.73754883 8.04492188 17.71289062 C5.72726929 17.69599243 3.40950189 17.69074423 1.09179688 17.69726562 C-7.36504006 17.54386484 -7.36504006 17.54386484 -10.75 14.64453125 C-12.30120105 11.36277152 -12.67208108 9.58443244 -12 6 C-8.37053687 1.70195156 -5.73966149 -0.78268111 0 0 Z " fill="#F75D03" transform="translate(749,362)"/>
<path d="M0 0 C19.8 0 39.6 0 60 0 C60 7 60 7 58.81565857 8.9122467 C56.41068791 10.35305436 54.75042008 10.38733149 51.94946289 10.40405273 C50.92152115 10.41673691 49.89357941 10.42942108 48.83448792 10.44248962 C47.17038124 10.43808617 47.17038124 10.43808617 45.47265625 10.43359375 C43.76196205 10.44145653 43.76196205 10.44145653 42.01670837 10.44947815 C39.60335098 10.45590546 37.18996229 10.45455224 34.77661133 10.44604492 C31.08032503 10.43754101 27.38558641 10.46627919 23.68945312 10.49804688 C21.34635463 10.49965906 19.00325339 10.49908104 16.66015625 10.49609375 C15.55277603 10.50732773 14.44539581 10.51856171 13.30445862 10.53013611 C12.27336472 10.52075516 11.24227081 10.51137421 10.17993164 10.50170898 C9.27408829 10.50154282 8.36824493 10.50137665 7.43495178 10.50120544 C4.13198349 9.82132928 2.99773724 8.6927228 1 6 C0.67 4.02 0.34 2.04 0 0 Z " fill="#094C33" transform="translate(753,348)"/>
<path d="M0 0 C4.47711351 0.85655387 7.6819256 2.82279714 10.4296875 6.46484375 C11.4885296 10.02746716 11.40018488 12.88754527 10.4296875 16.46484375 C8.37984345 19.88536664 6.02330505 22.66803497 2.4296875 24.46484375 C-2.30208442 24.85915808 -4.66431972 24.91784014 -8.9453125 22.77734375 C-11.76472252 20.29357778 -12.80610339 19.11606504 -13.5703125 15.46484375 C-13.26796428 9.82101023 -11.82424137 6.16561566 -8.23046875 1.859375 C-5.59600623 -0.35357352 -3.33283633 -0.13659165 0 0 Z " fill="#0C4331" transform="translate(322.5703125,394.53515625)"/>
<path d="M0 0 C3.3304589 1.65906193 6.29447878 3.58895755 8 7 C8.06996014 8.70702735 8.08440154 10.41668003 8.0625 12.125 C8.05347656 13.03507812 8.04445313 13.94515625 8.03515625 14.8828125 C8.02355469 15.58148438 8.01195312 16.28015625 8 17 C7.34 17 6.68 17 6 17 C5.731875 17.61875 5.46375 18.2375 5.1875 18.875 C4 21 4 21 1 23 C-2.46569438 23.73918656 -5.53765879 23.76882803 -9 23 C-13.38455415 19.94010797 -15.69405031 16.6131893 -16.6875 11.375 C-14.79594722 2.08919544 -8.93832301 -1.49465335 0 0 Z " fill="#093B2B" transform="translate(256,396)"/>
<path d="M0 0 C3.07210855 0.5982881 4.98477783 1.50919059 7.4375 3.4375 C8.12972656 3.97503906 8.82195312 4.51257813 9.53515625 5.06640625 C10.34855469 5.70449219 11.16195312 6.34257812 12 7 C13.56528284 8.19745137 15.13061769 9.39483565 16.69702148 10.59082031 C19.47356942 12.71575006 22.2370897 14.85738682 25 17 C25.928125 17.71800781 26.85625 18.43601563 27.8125 19.17578125 C32.34208279 22.73177993 36.56631263 26.36981433 40.52734375 30.5546875 C42.14273835 32.23015602 42.14273835 32.23015602 45 34 C45.1875 36.625 45.1875 36.625 45 39 C40.40459393 37.72052105 37.46841293 36.05289011 33.875 32.9375 C29.9522381 29.6071552 25.97239056 26.4666997 21.8125 23.4375 C16.73230096 19.66683413 12.33229062 15.59424308 8 11 C7.071875 10.0925 6.14375 9.185 5.1875 8.25 C0 2.91428571 0 2.91428571 0 0 Z " fill="#134201" transform="translate(240,236)"/>
<path d="M0 0 C2.92259352 1.32285812 3.83656259 2.4038751 6 5 C6.74114582 7.82775635 6.68737021 10.16459787 6 13 C4.20636089 15.8100346 2.98119065 17.50940468 0 19 C-3.0826338 19.47844415 -5.92434762 19.55149629 -9 19 C-12.75435667 15.85859952 -13.88672431 14.13275687 -14.375 9.25 C-14 6 -14 6 -13 4 C-12.34 4 -11.68 4 -11 4 C-11 3.34 -11 2.68 -11 2 C-7.28791035 -0.47472643 -4.30178878 -0.76962323 0 0 Z " fill="#104735" transform="translate(754,386)"/>
<path d="M0 0 C9.45617311 -0.47545004 17.83100739 0.89564104 27 3 C25.70324923 6.89025232 23.97759471 7.64524036 20.625 9.9375 C17.04616948 12.38791298 14.54337852 14.51260675 12 18 C11.34 18 10.68 18 10 18 C9.67128906 17.05640625 9.67128906 17.05640625 9.3359375 16.09375 C7.04650492 9.91414337 4.22940189 5.04708625 0 0 Z " fill="#115636" transform="translate(282,230)"/>
<path d="M0 0 C37.29 0 74.58 0 113 0 C113 0.66 113 1.32 113 2 C99.53450202 2.95245546 86.1732308 3.06559732 72.6796875 2.87890625 C70.59791665 2.85453085 68.51613947 2.83069139 66.43435669 2.80735779 C61.01923262 2.74525336 55.60422427 2.67598811 50.18920898 2.60510254 C44.63791057 2.53374331 39.08653168 2.46933435 33.53515625 2.40429688 C22.69001568 2.27623745 11.84498483 2.14059398 1 2 C0.67 1.34 0.34 0.68 0 0 Z " fill="#EEEFEA" transform="translate(490,565)"/>
<path d="M0 0 C34.98 0 69.96 0 106 0 C105.67 0.66 105.34 1.32 105 2 C94.83624382 2.15554846 84.67240708 2.30368113 74.50841427 2.4429636 C69.78623064 2.50789401 65.0641067 2.57515146 60.34204102 2.64819336 C20.226055 3.26554923 20.226055 3.26554923 1 2 C0.67 1.34 0.34 0.68 0 0 Z " fill="#EEEEEA" transform="translate(676,565)"/>
<path d="M0 0 C8.96190214 -0.06942208 17.92371213 -0.12277136 26.8858242 -0.15543652 C31.04702609 -0.17111189 35.20804441 -0.19238392 39.36914062 -0.22631836 C43.38267452 -0.25884564 47.39603154 -0.27683891 51.40968704 -0.28463173 C52.94316011 -0.29018723 54.47662318 -0.30103544 56.01002121 -0.31719017 C58.15321746 -0.33887714 60.29567704 -0.34197072 62.43896484 -0.34057617 C64.27096939 -0.35056892 64.27096939 -0.35056892 66.13998413 -0.36076355 C67.08378937 -0.24171158 68.0275946 -0.12265961 69 0 C71.51675702 3.77513553 71.36808778 5.5093291 71 10 C70.16292874 12.76765757 69.12515524 15.32775632 68 18 C67.67 18 67.34 18 67 18 C67.12568359 16.62714844 67.12568359 16.62714844 67.25390625 15.2265625 C67.35574219 14.03804688 67.45757813 12.84953125 67.5625 11.625 C67.66691406 10.44164062 67.77132812 9.25828125 67.87890625 8.0390625 C68.24153596 5.08101369 68.24153596 5.08101369 67 3 C34.33 2.505 34.33 2.505 1 2 C0.67 1.34 0.34 0.68 0 0 Z " fill="#E2722D" transform="translate(755,368)"/>
<path d="M0 0 C13.86 0 27.72 0 42 0 C41.67 0.66 41.34 1.32 41 2 C36.14386526 2.16856005 31.28755291 2.32901217 26.4309082 2.48217773 C24.78109656 2.53532451 23.1313529 2.5906298 21.48168945 2.64819336 C19.10122331 2.7308734 16.72061524 2.80561351 14.33984375 2.87890625 C13.61039047 2.90594131 12.88093719 2.93297638 12.12937927 2.96083069 C7.62006503 3.09025195 3.44911819 2.75811136 -1 2 C-0.67 1.34 -0.34 0.68 0 0 Z " fill="#EDEEEA" transform="translate(419,565)"/>
<path d="M0 0 C0 0.66 0 1.32 0 2 C18.81 2 37.62 2 57 2 C57 2.33 57 2.66 57 3 C37.53 3 18.06 3 -2 3 C-2 3.66 -2 4.32 -2 5 C-2.66 5 -3.32 5 -4 5 C-4 4.34 -4 3.68 -4 3 C-5.98 3 -7.96 3 -10 3 C-10 2.67 -10 2.34 -10 2 C-3.375 0 -3.375 0 0 0 Z " fill="#386657" transform="translate(755,345)"/>
<path d="M0 0 C0.66 0.33 1.32 0.66 2 1 C1.79375 1.86625 1.5875 2.7325 1.375 3.625 C0.95708778 7.38620995 1.71358874 9.49428383 3 13 C3.80743652 12.98428955 4.61487305 12.9685791 5.44677734 12.95239258 C9.08944756 12.89020321 12.73200634 12.85105991 16.375 12.8125 C17.64601563 12.78736328 18.91703125 12.76222656 20.2265625 12.73632812 C21.43828125 12.72666016 22.65 12.71699219 23.8984375 12.70703125 C25.01911621 12.6913208 26.13979492 12.67561035 27.29443359 12.65942383 C28.18727051 12.77181396 29.08010742 12.8842041 30 13 C32.42130331 16.63195496 32.21022785 18.38349348 32.125 22.6875 C32.10695313 23.86699219 32.08890625 25.04648437 32.0703125 26.26171875 C32.04710937 27.16535156 32.02390625 28.06898438 32 29 C31.67 29 31.34 29 31 29 C30.94392578 27.73542969 30.94392578 27.73542969 30.88671875 26.4453125 C30.82097656 25.34960938 30.75523437 24.25390625 30.6875 23.125 C30.62949219 22.03445313 30.57148437 20.94390625 30.51171875 19.8203125 C30.25841797 18.42425781 30.25841797 18.42425781 30 17 C26.59407537 14.72938358 25.37384619 14.76011937 21.37890625 14.76171875 C19.72858398 14.73754883 19.72858398 14.73754883 18.04492188 14.71289062 C15.72726929 14.69599243 13.40950189 14.69074423 11.09179688 14.69726562 C2.63989302 14.54395432 2.63989302 14.54395432 -0.76171875 11.65234375 C-2.24268657 8.48017608 -2.45168269 6.46290064 -2 3 C-1.34 2.01 -0.68 1.02 0 0 Z " fill="#DA8137" transform="translate(739,365)"/>
<path d="M0 0 C0.66 0.33 1.32 0.66 2 1 C3.84446217 6.77845491 4.26086483 11.96969157 4.125 18 C4.11597656 18.77472656 4.10695313 19.54945313 4.09765625 20.34765625 C4.07439388 22.23190843 4.0385364 24.11599832 4 26 C0.7 25.34 -2.6 24.68 -6 24 C-5.34 23.67 -4.68 23.34 -4 23 C-3.67 22.34 -3.34 21.68 -3 21 C-1.02 21.99 0.96 22.98 3 24 C2.52379711 19.62346871 1.33100111 17.93461995 -2.0625 15.1875 C-2.79597656 14.58292969 -3.52945312 13.97835938 -4.28515625 13.35546875 C-4.85105469 12.90816406 -5.41695313 12.46085937 -6 12 C-3 12 -3 12 1 14 C1 10.37 1 6.74 1 3 C0.34 2.67 -0.32 2.34 -1 2 C-0.67 1.34 -0.34 0.68 0 0 Z " fill="#67A219" transform="translate(282,251)"/>
<path d="M0 0 C1.01006104 0.15847412 2.02012207 0.31694824 3.06079102 0.48022461 C6.74419564 0.96624683 10.31605321 1.20094388 14.02734375 1.31640625 C15.31318359 1.35830078 16.59902344 1.40019531 17.92382812 1.44335938 C19.26171625 1.483157 20.59960691 1.52286951 21.9375 1.5625 C23.30274562 1.60576654 24.66798018 1.64938321 26.03320312 1.69335938 C29.35537652 1.79901153 32.67761946 1.90111395 36 2 C36 2.66 36 3.32 36 4 C31.51601216 4.09903473 27.03260708 4.17154483 22.54785156 4.21972656 C21.02299915 4.23981599 19.49822352 4.26709316 17.97363281 4.30175781 C15.77910402 4.35039796 13.58559531 4.37299396 11.390625 4.390625 C10.07094727 4.41157227 8.75126953 4.43251953 7.39160156 4.45410156 C3.5067716 3.93396165 2.36669597 3.03988949 0 0 Z " fill="#E28037" transform="translate(771,394)"/>
<path d="M0 0 C3.81248426 -0.02887236 7.6249407 -0.04675492 11.4375 -0.0625 C12.52611328 -0.07087891 13.61472656 -0.07925781 14.73632812 -0.08789062 C15.77080078 -0.09111328 16.80527344 -0.09433594 17.87109375 -0.09765625 C18.82943115 -0.10289307 19.78776855 -0.10812988 20.77514648 -0.11352539 C23 0 23 0 24 1 C24.79030718 7.95470316 22.59107396 14.5873086 20 21 C18.36328125 22.890625 18.36328125 22.890625 17 24 C17 22.35 17 20.7 17 19 C17.66 19 18.32 19 19 19 C19.144375 17.865625 19.28875 16.73125 19.4375 15.5625 C20 12 20 12 21 11 C21.33 8.03 21.66 5.06 22 2 C14.74 1.67 7.48 1.34 0 1 C0 0.67 0 0.34 0 0 Z " fill="#EA8239" transform="translate(329,238)"/>
<path d="M0 0 C3.88502164 0.57555876 6.24384275 2.24384275 9 5 C9.3125 7.75 9.3125 7.75 9 10 C2.5899705 9.51622419 2.5899705 9.51622419 0 7.25 C-1.25805827 4.4193689 -0.89063845 2.91481676 0 0 Z " fill="#0B3301" transform="translate(260,251)"/>
<path d="M0 0 C1.02810791 -0.00902344 2.05621582 -0.01804687 3.11547852 -0.02734375 C4.08155029 -0.02347656 5.04762207 -0.01960938 6.04296875 -0.015625 C6.91332764 -0.01336914 7.78368652 -0.01111328 8.68041992 -0.00878906 C10.8125 0.25 10.8125 0.25 12.8125 2.25 C11.59691406 2.23839844 10.38132812 2.22679687 9.12890625 2.21484375 C7.54427236 2.20546722 5.95963682 2.19636687 4.375 2.1875 C3.57255859 2.17912109 2.77011719 2.17074219 1.94335938 2.16210938 C-0.10045221 2.1534857 -2.14433902 2.1977185 -4.1875 2.25 C-4.5175 2.58 -4.8475 2.91 -5.1875 3.25 C-8.26308863 3.32247337 -11.32665403 3.24615439 -14.40234375 3.1875 C-17.14479309 3.05071538 -17.14479309 3.05071538 -19.1875 4.25 C-21.19550456 3.96887936 -23.19764051 3.63932033 -25.1875 3.25 C-25.1875 2.92 -25.1875 2.59 -25.1875 2.25 C-16.77446521 0.44143974 -8.58111693 0.03197684 0 0 Z " fill="#426D5F" transform="translate(525.1875,268.75)"/>
<path d="M0 0 C2.10209857 3.15314785 2.2434761 3.86103081 2.1953125 7.44921875 C2.19031738 8.21322998 2.18532227 8.97724121 2.18017578 9.7644043 C2.15286377 11.21133667 2.15286377 11.21133667 2.125 12.6875 C2.08375 15.760625 2.0425 18.83375 2 22 C-5.26 22 -12.52 22 -20 22 C-20.33 21.01 -20.66 20.02 -21 19 C-13.74 19.66 -6.48 20.32 1 21 C0.67 14.07 0.34 7.14 0 0 Z " fill="#E1F4C1" transform="translate(285,256)"/>
<path d="M0 0 C0.66 0.33 1.32 0.66 2 1 C0.50292969 2.98925781 0.50292969 2.98925781 -2 5 C-4.83352752 5.27995705 -7.23644178 5.33228664 -10.046875 5.171875 C-11.20367767 5.13009125 -11.20367767 5.13009125 -12.3838501 5.08746338 C-14.84046026 4.99429256 -17.29469732 4.87254887 -19.75 4.75 C-21.41789247 4.68170477 -23.08586252 4.61527676 -24.75390625 4.55078125 C-28.83715292 4.3888192 -32.91850756 4.20122707 -37 4 C-37 3.34 -37 2.68 -37 2 C-25.78 2.33 -14.56 2.66 -3 3 C-3 2.34 -3 1.68 -3 1 C-2.01 0.67 -1.02 0.34 0 0 Z " fill="#FEF0D1" transform="translate(810,395)"/>
<path d="M0 0 C0.33 0 0.66 0 1 0 C1 1.65 1 3.3 1 5 C6.94 4.67 12.88 4.34 19 4 C18 6 18 6 16.390625 6.62109375 C13.15648557 7.13369428 10.02272949 7.09280305 6.75 7.0625 C5.48671875 7.05347656 4.2234375 7.04445313 2.921875 7.03515625 C1.95765625 7.02355469 0.9934375 7.01195312 0 7 C-0.38133299 5.0085944 -0.71325582 3.00720923 -1 1 C-0.67 0.67 -0.34 0.34 0 0 Z " fill="#FBDAB3" transform="translate(290,283)"/>
<path d="M0 0 C0.66 0.33 1.32 0.66 2 1 C-0.23315484 4.40849949 -2.49707804 5.98581987 -6 8 C-6.556875 8.556875 -7.11375 9.11375 -7.6875 9.6875 C-8.3371875 10.3371875 -8.3371875 10.3371875 -9 11 C-9.66 11 -10.32 11 -11 11 C-10.67 11.99 -10.34 12.98 -10 14 C-11.98 14.99 -13.96 15.98 -16 17 C-12.48792359 9.48350002 -6.71560839 4.65320073 0 0 Z " fill="#2F7F63" transform="translate(746,280)"/>
<path d="M0 0 C1.2380014 3.57644848 0.74926071 6.33694766 0 10 C-0.99 10 -1.98 10 -3 10 C-2.938125 10.763125 -2.87625 11.52625 -2.8125 12.3125 C-3 15 -3 15 -4.25 16.8125 C-6 18 -6 18 -10 18 C-9.67 16.68 -9.34 15.36 -9 14 C-8.67 14.66 -8.34 15.32 -8 16 C-3.1602178 8.39780689 -3.1602178 8.39780689 0 0 Z " fill="#C4E4DA" transform="translate(844,352)"/>
<path d="M0 0 C7.22124213 0.41830366 14.04567778 0.95461111 21 3 C21 3.33 21 3.66 21 4 C13.70968976 4.2494783 7.09326321 3.72330907 0 2 C0 1.34 0 0.68 0 0 Z " fill="#8BB833" transform="translate(263,273)"/>
<path d="M0 0 C0.33 0.66 0.66 1.32 1 2 C-2.30697864 6.54709562 -6.28744016 10.88409801 -11 14 C-11.99 13.67 -12.98 13.34 -14 13 C-10.78105326 9.64693048 -7.31805468 6.62201707 -3.8046875 3.5859375 C-2.49559495 2.43552284 -1.23231027 1.23231027 0 0 Z " fill="#D6E5DF" transform="translate(573,374)"/>
<path d="M0 0 C0.66 0.33 1.32 0.66 2 1 C0 4 0 4 -3 5 C-4.04892238 6.63631892 -5.04906703 8.30485863 -6 10 C-6.66 10.66 -7.32 11.32 -8 12 C-8.99 11.67 -9.98 11.34 -11 11 C-9.92173635 9.72486237 -8.83714481 8.45507431 -7.75 7.1875 C-7.14671875 6.47980469 -6.5434375 5.77210938 -5.921875 5.04296875 C-4.07629602 3.08110329 -2.20054668 1.54330375 0 0 Z " fill="#CDEBDE" transform="translate(768,302)"/>
<path d="M0 0 C4.24822374 0.47202486 6.19989709 2.96655518 9 6 C8.34 6 7.68 6 7 6 C7.33 7.32 7.66 8.64 8 10 C4.69713914 8.89904638 4.21489099 8.3103981 2.3125 5.5625 C1.65701172 4.63630859 1.65701172 4.63630859 0.98828125 3.69140625 C0 2 0 2 0 0 Z " fill="#1F5401" transform="translate(240,236)"/>
<path d="M0 0 C-1.19432131 2.82294128 -2.5118514 4.58675649 -4.5625 6.9375 C-6.90630127 9.88227596 -7.6765774 11.33454384 -8 15 C-8.33 15 -8.66 15 -9 15 C-9.45675183 9.29060212 -8.62105556 6.44872541 -5 2 C-2 0 -2 0 0 0 Z " fill="#3B6256" transform="translate(249,396)"/>
<path d="M0 0 C1.22329074 3.66987221 0.88021006 6.33967822 0.5625 10.1875 C0.46066406 11.45980469 0.35882812 12.73210937 0.25390625 14.04296875 C0.12822266 15.50669922 0.12822266 15.50669922 0 17 C-0.66 17 -1.32 17 -2 17 C-2 11.72 -2 6.44 -2 1 C-1.34 0.67 -0.68 0.34 0 0 Z " fill="#176A46" transform="translate(722,318)"/>
<path d="M0 0 C0.66 0.33 1.32 0.66 2 1 C0.56974806 2.65213589 -0.86945545 4.29652589 -2.3125 5.9375 C-3.11300781 6.85402344 -3.91351563 7.77054687 -4.73828125 8.71484375 C-7 11 -7 11 -10 12 C-7.75066455 6.93899525 -4.58147862 3.10886049 0 0 Z " fill="#C1D6CF" transform="translate(504,304)"/>
<path d="M0 0 C5.32338166 0.26180566 5.32338166 0.26180566 8 1 C9.8125 3.375 9.8125 3.375 11 6 C12.58245275 7.75149165 12.58245275 7.75149165 14 9 C13.67 9.66 13.34 10.32 13 11 C12.48050781 10.54109375 11.96101563 10.0821875 11.42578125 9.609375 C7.68287834 6.31617392 3.93021199 3.07047811 0 0 Z " fill="#E9F9BE" transform="translate(260,223)"/>
<path d="M0 0 C0.66 0.33 1.32 0.66 2 1 C0.92492371 2.29854721 -0.16043736 3.58858361 -1.25 4.875 C-1.85328125 5.59429687 -2.4565625 6.31359375 -3.078125 7.0546875 C-4.97087634 8.97052118 -6.53657727 9.96449045 -9 11 C-7.59155282 7.78475695 -5.89655214 5.67816132 -3.375 3.25 C-2.74335937 2.63640625 -2.11171875 2.0228125 -1.4609375 1.390625 C-0.73777344 0.70226562 -0.73777344 0.70226562 0 0 Z " fill="#CEE1DA" transform="translate(646,305)"/>
<path d="M0 0 C3.06081203 2.75473082 4.89882863 4.99574049 6 9 C5.625 11.3125 5.625 11.3125 5 13 C2.79970166 10.79970166 2.31417391 9.4218744 1.375 6.5 C0.98441406 5.30890625 0.98441406 5.30890625 0.5859375 4.09375 C0 2 0 2 0 0 Z " fill="#C6EADD" transform="translate(828,353)"/>
<path d="M0 0 C0 0.66 0 1.32 0 2 C-4.29 2 -8.58 2 -13 2 C-13 1.34 -13 0.68 -13 0 C-8.38926889 -1.29676812 -4.66159911 -0.71109139 0 0 Z " fill="#EEEEEA" transform="translate(936,565)"/>
<path d="M0 0 C0.66 0.33 1.32 0.66 2 1 C1.79375 1.886875 1.5875 2.77375 1.375 3.6875 C0.97449761 7.2252711 1.43316484 8.86632967 3 12 C1.0625 11.625 1.0625 11.625 -1 11 C-2.38550197 8.22899606 -2.1877467 6.0665294 -2 3 C-1.34 2.01 -0.68 1.02 0 0 Z " fill="#E9822C" transform="translate(739,365)"/>
<path d="M0 0 C1.65 0 3.3 0 5 0 C5.33 0.99 5.66 1.98 6 3 C6.99 3.33 7.98 3.66 9 4 C10.1875 6.5625 10.1875 6.5625 11 9 C6.7973607 6.36113346 3.43361902 3.63559661 0 0 Z " fill="#639D09" transform="translate(263,251)"/>
<path d="M0 0 C1.32 0.66 2.64 1.32 4 2 C4 3.65 4 5.3 4 7 C-1.75 5.375 -1.75 5.375 -4 2 C-2.68 2.33 -1.36 2.66 0 3 C0 2.01 0 1.02 0 0 Z " fill="#1F5401" transform="translate(281,268)"/>
<path d="M0 0 C0 0.66 0 1.32 0 2 C-0.99 2.33 -1.98 2.66 -3 3 C-3.6496875 3.9590625 -3.6496875 3.9590625 -4.3125 4.9375 C-6.53095674 7.64894713 -8.67469194 8.11325118 -12 9 C-9.14880426 5.05219051 -5.28603137 0 0 0 Z " fill="#E37C2D" transform="translate(316,244)"/>
<path d="M0 0 C0.66 0 1.32 0 2 0 C0.34908222 4.29238623 -2.73754566 6.8793915 -6 10 C-6.66 9.67 -7.32 9.34 -8 9 C-6.71520959 7.49410612 -5.42195918 5.99542625 -4.125 4.5 C-3.04605469 3.24703125 -3.04605469 3.24703125 -1.9453125 1.96875 C-1.30335938 1.3190625 -0.66140625 0.669375 0 0 Z " fill="#2F594A" transform="translate(617,285)"/>
<path d="M0 0 C0.33 1.32 0.66 2.64 1 4 C-2.14591933 6.80045623 -4.067064 7.35261589 -8.25 7.1875 C-9.14203125 7.16042969 -10.0340625 7.13335937 -10.953125 7.10546875 C-11.96632812 7.05326172 -11.96632812 7.05326172 -13 7 C-13 6.67 -13 6.34 -13 6 C-11.96939453 5.85304688 -11.96939453 5.85304688 -10.91796875 5.703125 C-10.01691406 5.55359375 -9.11585938 5.4040625 -8.1875 5.25 C-7.29417969 5.11078125 -6.40085938 4.9715625 -5.48046875 4.828125 C-2.49427342 3.831159 -1.61619656 2.6417565 0 0 Z " fill="#C1D7CE" transform="translate(262,413)"/>
<path d="M0 0 C2.4375 0.375 2.4375 0.375 5 1 C6.44207941 3.88415883 6.09394887 6.41721528 6.0625 9.625 C6.05347656 10.81351562 6.04445313 12.00203125 6.03515625 13.2265625 C6.02355469 14.14179688 6.01195312 15.05703125 6 16 C5.67 16 5.34 16 5 16 C4.96132813 14.77023437 4.96132813 14.77023437 4.921875 13.515625 C4.86515625 12.43796875 4.8084375 11.3603125 4.75 10.25 C4.70359375 9.18265625 4.6571875 8.1153125 4.609375 7.015625 C3.89410286 3.47594492 2.74415095 2.26118038 0 0 Z " fill="#E06E20" transform="translate(765,378)"/>
<path d="M0 0 C0.33 0 0.66 0 1 0 C1 2.31 1 4.62 1 7 C-2.3 6.34 -5.6 5.68 -9 5 C-8.34 4.67 -7.68 4.34 -7 4 C-6.67 3.34 -6.34 2.68 -6 2 C-4.02 2.99 -2.04 3.98 0 5 C0 3.35 0 1.7 0 0 Z " fill="#509115" transform="translate(285,270)"/>
<path d="M0 0 C0.99 0.33 1.98 0.66 3 1 C1.02 3.31 -0.96 5.62 -3 8 C-3.99 7.67 -4.98 7.34 -6 7 C-4.02 4.69 -2.04 2.38 0 0 Z " fill="#2E594B" transform="translate(545,353)"/>
<path d="M0 0 C0 0.66 0 1.32 0 2 C0.66 2.33 1.32 2.66 2 3 C0.68 3 -0.64 3 -2 3 C-2 3.66 -2 4.32 -2 5 C-2.66 5 -3.32 5 -4 5 C-4 4.34 -4 3.68 -4 3 C-5.98 3 -7.96 3 -10 3 C-10 2.67 -10 2.34 -10 2 C-3.375 0 -3.375 0 0 0 Z " fill="#339072" transform="translate(755,345)"/>
<path d="M0 0 C2.475 0.495 2.475 0.495 5 1 C5.66 2.98 6.32 4.96 7 7 C4.13302508 5.71480435 2.02392288 4.42870746 0 2 C0 1.34 0 0.68 0 0 Z " fill="#183E31" transform="translate(615,378)"/>
<path d="M0 0 C0.33 0.99 0.66 1.98 1 3 C-1.31 4.98 -3.62 6.96 -6 9 C-5.67 7.68 -5.34 6.36 -5 5 C-4.34 5 -3.68 5 -3 5 C-2.5359375 4.0409375 -2.5359375 4.0409375 -2.0625 3.0625 C-1 1 -1 1 0 0 Z " fill="#184031" transform="translate(571,373)"/>
<path d="M0 0 C0.33 1.32 0.66 2.64 1 4 C-1.97 6.475 -1.97 6.475 -5 9 C-3.7508258 5.54074837 -2.32472205 2.85306797 0 0 Z " fill="#2E5749" transform="translate(467,294)"/>
<path d="M0 0 C2.64 1.98 5.28 3.96 8 6 C5.50907189 7.24546405 4.58919267 6.7767578 2 6 C2 5.34 2 4.68 2 4 C1.34 4 0.68 4 0 4 C0 2.68 0 1.36 0 0 Z " fill="#1D6C51" transform="translate(825,282)"/>
<path d="M0 0 C3.63 0.33 7.26 0.66 11 1 C11 1.33 11 1.66 11 2 C8.69 2 6.38 2 4 2 C3.67 2.66 3.34 3.32 3 4 C2.01 3.34 1.02 2.68 0 2 C0 1.34 0 0.68 0 0 Z " fill="#237759" transform="translate(792,270)"/>
<path d="M0 0 C0.66 0.33 1.32 0.66 2 1 C0.4375 3.0625 0.4375 3.0625 -2 5 C-5.75 4.75 -5.75 4.75 -9 4 C-9 3.67 -9 3.34 -9 3 C-7.02 3 -5.04 3 -3 3 C-3 2.34 -3 1.68 -3 1 C-2.01 0.67 -1.02 0.34 0 0 Z " fill="#FCE7C9" transform="translate(810,395)"/>
<path d="M0 0 C0.66 0.33 1.32 0.66 2 1 C1.21625 1.7425 0.4325 2.485 -0.375 3.25 C-2.56504531 5.54433318 -3.82731386 7.12158858 -5 10 C-5.33 9.34 -5.66 8.68 -6 8 C-4.38999603 4.86049226 -2.61500768 2.36595933 0 0 Z " fill="#B3E1D1" transform="translate(738,350)"/>
<path d="M0 0 C0.33 0 0.66 0 1 0 C1.33 2.64 1.66 5.28 2 8 C0.02 8.99 0.02 8.99 -2 10 C-1.34 6.7 -0.68 3.4 0 0 Z " fill="#2B4E42" transform="translate(458,308)"/>
<path d="M0 0 C0.99 0.33 1.98 0.66 3 1 C3.33 4.63 3.66 8.26 4 12 C1.21366885 7.82050327 0 5.06624674 0 0 Z " fill="#8EC329" transform="translate(207,218)"/>
<path d="M0 0 C1.0625 1.8125 1.0625 1.8125 2 4 C1.67 4.99 1.34 5.98 1 7 C0.34 7 -0.32 7 -1 7 C-1.33 7.99 -1.66 8.98 -2 10 C-2.66 9.67 -3.32 9.34 -4 9 C-3.525625 8.443125 -3.05125 7.88625 -2.5625 7.3125 C-0.87604004 4.81653926 -0.41046893 2.9553763 0 0 Z " fill="#C7DCD8" transform="translate(760,394)"/>
<path d="M0 0 C-4.77573323 2.61895048 -8.84434881 1.83119431 -14 1 C-14 0.67 -14 0.34 -14 0 C-12.41773035 -0.19627391 -10.83410729 -0.38165538 -9.25 -0.5625 C-8.36828125 -0.66691406 -7.4865625 -0.77132813 -6.578125 -0.87890625 C-4.11567549 -0.99456676 -2.33461936 -0.73638695 0 0 Z " fill="#2E5A4B" transform="translate(529,367)"/>
<path d="M0 0 C0.33 0 0.66 0 1 0 C1.125 6.75 1.125 6.75 0 9 C-0.66 9 -1.32 9 -2 9 C-1.125 2.25 -1.125 2.25 0 0 Z " fill="#C3E6DB" transform="translate(847,343)"/>
<path d="M0 0 C0.33 0 0.66 0 1 0 C1.125 2.875 1.125 2.875 1 6 C0.34 6.66 -0.32 7.32 -1 8 C-1.66 7.67 -2.32 7.34 -3 7 C-1.125 1.125 -1.125 1.125 0 0 Z " fill="#2E5347" transform="translate(606,298)"/>
<path d="M0 0 C-3.53411321 2.12046792 -6.94393835 2.53199289 -11 3 C-10 1 -10 1 -6.625 -0.1875 C-3 -1 -3 -1 0 0 Z " fill="#426F5F" transform="translate(644,273)"/>
<path d="M0 0 C1.32 0.66 2.64 1.32 4 2 C4 2.99 4 3.98 4 5 C2.35 5 0.7 5 -1 5 C-0.67 3.35 -0.34 1.7 0 0 Z " fill="#69AB06" transform="translate(274,269)"/>
<path d="M0 0 C0.625 1.8125 0.625 1.8125 1 4 C0.01 5.485 0.01 5.485 -1 7 C-1.66 7 -2.32 7 -3 7 C-3.33 6.01 -3.66 5.02 -4 4 C-2.68 2.68 -1.36 1.36 0 0 Z " fill="#0B5C3D" transform="translate(839,359)"/>
<path d="M0 0 C0.66 0.33 1.32 0.66 2 1 C0.02 3.31 -1.96 5.62 -4 8 C-4.66 7.67 -5.32 7.34 -6 7 C-4.02 4.69 -2.04 2.38 0 0 Z " fill="#3B6453" transform="translate(417,280)"/>
<path d="M0 0 C3.3 1.65 6.6 3.3 10 5 C7 6 7 6 3.875 4.75 C1 3 1 3 0 0 Z " fill="#ECFAC8" transform="translate(235,263)"/>
<path d="M0 0 C1.32 0.33 2.64 0.66 4 1 C5.125 4.75 5.125 4.75 4 7 C0 2.25 0 2.25 0 0 Z " fill="#276100" transform="translate(240,236)"/>
</svg>
